<svg width="50" height="40" viewBox="0 0 50 40" fill="none" xmlns="http://www.w3.org/2000/svg">
<path fill-rule="evenodd" clip-rule="evenodd" d="M16.7405 0.216485C16.4008 0.458945 16.2504 0.713527 7.2554 16.2968C5.71434 18.9667 5.68403 18.8746 8.66744 20.5721C9.61996 21.1142 13.4673 23.3304 17.2173 25.4975C20.9674 27.6644 24.3041 29.4372 24.6325 29.4372C25.0762 29.4372 25.5565 28.8614 26.498 27.2002C27.1951 25.97 29.5409 21.8782 31.7106 18.1077C33.8804 14.3372 35.6555 11.1318 35.6555 10.9846C35.6555 10.7034 34.2112 9.78961 29.4497 7.05789C27.8622 6.14722 24.4547 4.18561 21.8777 2.69881C19.3005 1.21201 17.1573 -0.00230585 17.1151 3.28784e-06C17.0727 0.00260107 16.9041 0.0998736 16.7405 0.216485ZM17.1755 2.79868C17.0023 3.08271 14.9333 6.62724 12.5774 10.6754C9.36797 16.1903 8.37706 18.1178 8.62501 18.3623C8.80714 18.5418 12.3866 20.6587 16.5797 23.0666C22.2781 26.3386 24.2634 27.3495 24.4412 27.0695C25.5594 25.3105 33.3868 11.4877 33.3063 11.4144C33.0121 11.1462 27.999 8.36631 27.8096 8.36631C27.6878 8.36631 27.3747 8.7883 27.1137 9.3044C26.8528 9.82049 26.1843 10.9993 25.6287 11.9244L24.6184 13.6063L23.1218 10.6847L20.0094 11.0507L20.4715 10.1565C20.7258 9.66491 21.3882 8.5089 21.9438 7.58784C22.4992 6.66649 22.9541 5.77459 22.9544 5.60544C22.955 5.43659 22.533 5.08617 22.0172 4.82697C21.5014 4.56777 20.2714 3.88917 19.2846 3.3191C17.6165 2.35533 17.4679 2.31838 17.1755 2.79868ZM42.7694 7.22155C40.8647 7.94518 40.5809 8.24999 38.5223 11.7841C37.5366 13.4764 36.0489 16.0298 35.2168 17.4585C34.3843 18.8873 32.7301 21.7449 31.5403 23.8087C27.3371 31.1001 27.8371 30.4446 26.5471 30.3522C25.7591 30.2956 24.9798 30.4988 24.0151 31.0123L22.6213 31.7541L17.665 28.8966C14.9388 27.3249 10.5003 24.7736 7.80151 23.2271C5.1027 21.6805 2.72804 20.261 2.52455 20.0719C2.22638 19.7954 2.30374 19.462 2.92345 18.3533C3.61879 17.1093 3.64939 16.935 3.24356 16.5294C2.99677 16.2826 2.60104 16.155 2.36406 16.246C1.77263 16.4731 -0.183497 20.0347 0.0139344 20.5254C0.155658 20.8781 3.49583 22.8541 17.8261 31.0634L21.7894 33.3339L21.7949 34.5699C21.8024 36.205 22.3806 37.516 23.5155 38.4709C24.2853 39.1186 24.7209 39.2508 26.0804 39.2499C28.1347 39.2488 29.3481 38.5554 30.1918 36.9018C30.9333 35.4485 30.7997 33.5134 29.8708 32.2503C29.3822 31.5856 29.3426 31.3492 29.6298 30.8071C31.1997 27.8433 41.6076 10.1155 42.0423 9.6652C42.5495 9.13929 42.9054 9.09657 46.0314 9.1849C49.3268 9.27813 49.4769 9.25677 49.8051 8.6434C50.0556 8.17552 50.0637 7.82135 49.8348 7.31969C49.5375 6.66707 49.3955 6.6359 46.8465 6.66187C45.0015 6.68093 43.7355 6.85469 42.7694 7.22155ZM25.0075 32.4261C24.1543 32.9133 23.5562 33.9527 23.5426 34.9714C23.5299 35.9285 24.7321 37.4052 25.6699 37.5847C27.4099 37.9173 29.2505 36.0656 28.8759 34.3594C28.5067 32.679 26.4042 31.6283 25.0075 32.4261Z" fill="#FF110A"/>
<path d="M18.6276 13.6606C20.382 13.6606 21.2025 15.1532 21.2025 16.7419C21.2025 18.3829 20.3908 19.8493 18.6276 19.8493C16.8643 19.8493 16.0351 18.348 16.0351 16.7506C16.0351 14.8826 17.0651 13.6606 18.6276 13.6606ZM18.6276 15.031C17.7198 15.031 17.6848 16.1483 17.6848 16.8204C17.6848 17.9377 17.9903 18.4789 18.6276 18.4789C19.2473 18.4789 19.5615 17.8941 19.5615 16.7419C19.5615 15.5722 19.2648 15.031 18.6276 15.031Z" fill="#FF110A"/>
<path d="M22.1565 19.7708V14.9014H23.7114C24.3388 14.9014 24.7958 15.0287 25.0822 15.2833C25.3732 15.5379 25.5187 15.888 25.5187 16.3335C25.5187 16.5972 25.4596 16.845 25.3414 17.0769C25.2231 17.3088 25.0254 17.4952 24.748 17.6361C24.4752 17.7771 24.1024 17.8476 23.6296 17.8476H23.1863V19.7708H22.1565ZM21.6109 19.041V18.3795H24.2365V19.041H21.6109ZM21.6109 17.8476V17.0019H23.6091V17.8476H21.6109ZM23.5273 17.0019C23.7228 17.0019 23.891 16.9814 24.0319 16.9405C24.1729 16.895 24.282 16.8246 24.3593 16.7291C24.4366 16.6336 24.4752 16.5131 24.4752 16.3676C24.4752 16.1585 24.4093 16.0039 24.2775 15.9039C24.1456 15.7993 23.9387 15.747 23.6569 15.747H23.1863V17.0019H23.5273Z" fill="#FF110A"/>
</svg>
