<svg width="72" height="67" viewBox="0 0 72 67" fill="none" xmlns="http://www.w3.org/2000/svg">
<rect x="1.58008" y="0.42041" width="69.6049" height="60.6236" rx="5" fill="#E63C32" fill-opacity="0.5"/>
<path fill-rule="evenodd" clip-rule="evenodd" d="M1.58008 12.2665C1.58008 12.5504 1.62827 12.5802 2.69416 12.9548C5.06204 13.7868 9.64937 15.7907 12.7209 17.3347C13.7158 17.8349 13.9302 17.9052 14.405 17.887C14.7665 17.8732 14.9491 17.9074 14.9491 17.9889C14.9491 18.0732 14.8112 18.0935 14.5087 18.0538C14.0694 17.9963 14.069 17.9966 14.357 18.1491C14.516 18.2334 14.9065 18.3212 15.2251 18.3444C15.5436 18.3676 15.8332 18.4177 15.8689 18.456C15.9045 18.4941 15.6904 18.5031 15.3931 18.4759C15.0957 18.4485 14.8727 18.459 14.8975 18.4991C14.9223 18.5391 14.8856 18.6497 14.816 18.7448C14.7004 18.903 14.5964 18.8813 13.6016 18.492C10.2734 17.1899 6.74529 16.041 3.57497 15.2269C2.59177 14.9744 1.74061 14.7679 1.68361 14.7679C1.62671 14.7679 1.58008 14.906 1.58008 15.0748C1.58008 15.349 1.62703 15.3939 2.02053 15.4952C5.84749 16.4812 9.17431 17.5204 13.0573 18.9426C14.5122 19.4754 14.5337 19.4879 14.5341 19.797C14.5344 19.9697 14.6042 20.2103 14.6894 20.3319C14.8345 20.5391 14.7857 20.6549 13.9121 22.179C13.3994 23.0733 12.98 23.9251 12.98 24.0717C12.98 24.3824 15.3353 31.7248 15.5246 32.0045C15.5949 32.1081 16.5084 32.6846 17.5548 33.2852C19.5631 34.4382 21.3655 35.4782 28.8363 39.7946C31.3728 41.2601 34.684 43.1726 36.1945 44.0446C37.705 44.9166 40.7363 46.6681 42.9308 47.937C45.1253 49.2058 47.3638 50.4992 47.9053 50.8113C48.4468 51.1234 49.3329 51.6393 49.8744 51.9576C50.9004 52.5609 51.4331 52.6852 51.7752 52.4014C51.866 52.326 52.1129 51.954 52.3239 51.5747C52.535 51.1954 53.8138 48.9729 55.1658 46.6359C61.0699 36.4307 62.518 33.8769 62.518 33.6702C62.518 33.2861 62.1372 32.9444 60.9387 32.2527C60.2967 31.8824 58.8855 31.0693 57.8025 30.4458C55.3513 29.0347 51.5477 26.8392 39.6144 19.9476C34.456 16.9685 29.5163 14.1169 28.6372 13.6107C27.7583 13.1044 26.9366 12.6645 26.8112 12.633C26.5321 12.5629 18.8143 14.2055 18.5245 14.3966C18.4105 14.4718 17.9053 15.2525 17.4018 16.1315L16.4862 17.7297L16.1315 17.6882C15.9097 17.6623 15.6748 17.7136 15.5046 17.8252C15.2432 17.9964 15.2162 17.9941 14.8133 17.7677C14.5005 17.5919 14.254 17.5378 13.8425 17.5544C13.5391 17.5667 13.2909 17.5317 13.2909 17.4766C13.2909 17.4214 13.4879 17.3956 13.7314 17.4191L14.1718 17.4617L13.7573 17.2386C13.4722 17.085 13.1648 17.0166 12.7728 17.0192L12.2028 17.0231L12.6691 16.9531L13.1355 16.883L11.3737 16.0203C9.29919 15.0044 7.50556 14.2048 5.36279 13.3409C4.03397 12.8051 1.75481 11.9697 1.62184 11.9697C1.59884 11.9697 1.58008 12.1033 1.58008 12.2665ZM16.5169 18.153C16.6274 18.2867 16.6303 18.3349 16.5301 18.3686C16.4591 18.3926 16.6166 18.5267 16.88 18.6668C17.4338 18.9612 17.5682 18.9266 17.2064 18.5828C16.647 18.0511 16.2058 17.776 16.5169 18.153ZM11.7364 18.1879C11.4837 18.2688 11.4851 18.2709 11.7882 18.2739C11.9592 18.2756 12.1924 18.2369 12.3064 18.1879C12.4948 18.1069 12.4901 18.0991 12.2546 18.1019C12.1121 18.1035 11.8789 18.1423 11.7364 18.1879ZM12.6533 18.6094C12.8021 18.669 13.0232 18.6701 13.2233 18.6122C13.5187 18.5266 13.4955 18.5172 12.98 18.5147C12.5226 18.5125 12.458 18.5311 12.6533 18.6094ZM13.6292 18.9877C13.7867 19.0115 14.0199 19.0109 14.1474 18.9863C14.2748 18.9617 14.1459 18.9422 13.8609 18.943C13.5759 18.9438 13.4717 18.9639 13.6292 18.9877ZM19.2208 19.1694C18.7629 19.3123 18.4727 19.4971 18.4727 19.6456C18.4727 19.6924 18.6477 19.8383 18.8614 19.9697C19.0752 20.1012 19.2633 20.272 19.2795 20.3492C19.3252 20.5664 19.0864 20.7902 18.879 20.7244C18.5845 20.6309 18.4054 21.0507 18.6325 21.3017C18.9991 21.7068 18.5885 21.9628 18.0582 21.6597C17.6408 21.4211 17.5398 21.4667 17.5417 21.8929C17.544 22.4191 17.9143 23.0361 18.4567 23.4171C18.8733 23.71 18.9692 23.7324 19.8096 23.7324C20.6882 23.7324 20.7305 23.7211 21.2885 23.3368C22.0402 22.8192 22.3568 22.2225 22.3495 21.3377C22.3407 20.2669 21.7353 19.4786 20.677 19.16C20.0999 18.9864 19.8007 18.9883 19.2208 19.1694ZM17.2291 19.2155C17.3146 19.2642 17.5478 19.3321 17.7473 19.3665L18.11 19.4289L17.7991 19.2795C17.4547 19.1139 16.9518 19.0574 17.2291 19.2155ZM14.5256 19.3374C14.6845 19.4009 14.8737 19.4016 15.0438 19.3391C15.275 19.2541 15.2407 19.2404 14.7937 19.239C14.3578 19.2376 14.3153 19.2533 14.5256 19.3374ZM14.8455 19.8474C14.8455 19.8847 15.0111 20.0978 15.2135 20.321C15.4731 20.6074 15.5307 20.643 15.4088 20.442C15.3139 20.2853 15.2592 20.157 15.2873 20.157C15.4649 20.157 16.0746 20.4872 16.2455 20.6762C16.6555 21.1293 16.8299 21.1194 16.5172 20.6609C16.2654 20.2917 16.1148 20.191 15.5327 20.0023C15.1547 19.8798 14.8455 19.8101 14.8455 19.8474ZM18.3112 20.0557C18.5927 20.1657 18.8396 20.2392 18.8595 20.2192C18.909 20.1698 18.0859 19.8448 17.9266 19.8509C17.8564 19.8536 18.0295 19.9457 18.3112 20.0557ZM17.8092 20.3811C17.6234 20.6464 17.6607 20.7287 18.0608 20.9356C18.3421 21.0811 18.3686 21.0771 18.4776 20.8733C18.5742 20.6929 18.554 20.6129 18.3599 20.4063C18.0723 20.1001 18.0082 20.0972 17.8092 20.3811ZM16.9231 20.5197C16.9221 20.5767 16.9556 20.6707 16.9975 20.7286C17.1365 20.9209 17.7614 21.4006 17.8729 21.4006C17.9332 21.4006 17.848 21.2957 17.6837 21.1674C17.5194 21.0391 17.2814 20.8176 17.1549 20.6751C17.0282 20.5326 16.924 20.4627 16.9231 20.5197ZM28.4211 22.3199C27.2676 22.7001 26.3672 23.8863 26.479 24.8785C26.5675 25.6643 26.9139 26.1693 28.3668 27.6315C29.5682 28.8405 29.769 29.0891 29.769 29.3671C29.769 30.1555 28.967 30.354 27.9666 29.813C27.2966 29.4507 26.9241 28.8954 26.9988 28.3703C27.0292 28.1564 27.083 27.9104 27.1182 27.8234C27.166 27.7059 26.9138 27.5115 26.1341 27.0647C25.5576 26.7344 25.0259 26.4871 24.9527 26.5152C24.7556 26.5908 24.4836 27.4797 24.4836 28.0479C24.4836 29.4209 25.616 30.8376 27.4026 31.6997C29.273 32.6023 30.6481 32.563 31.6693 31.5777C32.5905 30.689 32.8186 29.5655 32.2822 28.558C32.1069 28.2285 31.469 27.494 30.624 26.6481C29.5861 25.6091 29.2509 25.2095 29.2509 25.0114C29.2509 24.7063 29.5404 24.406 29.8345 24.406C30.1703 24.406 31.0914 24.9165 31.3848 25.2652C31.6225 25.5477 31.6505 25.6544 31.5997 26.0839L31.5411 26.5778L32.5983 27.1995C33.7819 27.8956 33.8041 27.8933 34.0318 27.052C34.3973 25.701 33.6739 24.3244 32.0452 23.2717C30.8209 22.4804 29.2144 22.0585 28.4211 22.3199ZM36.4535 26.8985C36.2255 26.944 35.8729 27.0517 35.6698 27.1379C35.2645 27.3097 34.3968 28.1849 34.4559 28.3621C34.4763 28.4234 34.9917 28.7529 35.6011 29.0946L36.7093 29.7158L37.0773 29.3928C37.5619 28.9673 38.0285 28.9645 38.7578 29.3827C39.4328 29.7698 39.663 30.0964 39.5741 30.5409C39.4127 31.3479 38.9195 31.4299 37.5658 30.8751C34.7454 29.7191 33.7212 29.7146 32.7185 30.8537C31.9743 31.6992 31.741 32.9102 32.149 33.8091C32.7176 35.0616 35.0289 36.3033 36.3133 36.0465C36.6206 35.9851 36.6231 35.9882 36.5546 36.3534L36.4854 36.7223L37.5577 37.3513C38.1474 37.6972 38.6845 37.9808 38.7513 37.9813C38.8179 37.9819 38.9053 37.8308 38.9454 37.6455C39.0474 37.1733 39.3417 36.6072 40.8953 33.8936L42.2572 31.5147L42.2567 30.8363C42.2563 30.2859 42.2032 30.0674 41.9754 29.6793C41.0261 28.0618 38.0733 26.5747 36.4535 26.8985ZM45.548 27.6446C45.4915 27.716 44.477 29.4531 43.2936 31.5051C42.1102 33.5571 41.0431 35.4038 40.9222 35.6089C39.9918 37.1888 39.4006 38.3025 39.4502 38.3826C39.5262 38.5058 41.5293 39.6405 41.6707 39.6405C41.73 39.6405 41.984 39.279 42.2352 38.8373C42.4864 38.3956 43.2189 37.1247 43.863 36.0132C45.2494 33.6206 47.3209 30.0292 47.6749 29.4041C47.8129 29.1605 47.903 28.904 47.8755 28.8341C47.8337 28.7285 45.8259 27.5151 45.6928 27.5151C45.6697 27.5151 45.6045 27.5735 45.548 27.6446ZM34.9082 32.4976C34.7571 32.6772 34.6399 32.9453 34.6399 33.1114C34.6399 33.7472 35.6516 34.4587 36.5557 34.4587C36.9415 34.4587 37.0909 34.3973 37.4128 34.1066C37.9088 33.6583 38.3397 32.9227 38.1446 32.8572C38.0695 32.832 37.7749 32.7433 37.4899 32.6601C37.2049 32.5769 36.7983 32.4345 36.5864 32.3437C36.3745 32.2529 35.9706 32.1787 35.6888 32.1787C35.244 32.1787 35.1412 32.2207 34.9082 32.4976ZM47.5944 33.5361C46.8924 33.6733 45.8518 34.2269 45.3466 34.7319C44.6978 35.3809 44.0961 36.3641 43.8479 37.1813C43.5348 38.212 43.6057 39.5532 44.0188 40.4178C45.0061 42.4835 47.845 43.7169 49.7802 42.9208C50.4305 42.6533 51.326 42.0478 51.3239 41.877C51.3225 41.7638 49.5309 40.6769 49.3456 40.6769C49.2904 40.6769 49.13 40.7524 48.9891 40.8447C48.576 41.1153 47.5988 40.9993 47.0514 40.6146C46.4032 40.159 46.1426 39.7165 46.1482 39.0811C46.1508 38.7903 46.209 38.4254 46.2777 38.2701L46.4026 37.9879L47.4908 38.6145C50.6632 40.4413 51.8253 41.0914 51.9186 41.0914C52.0547 41.0914 52.6043 40.0366 52.8097 39.3814C53.4968 37.189 52.6778 35.1049 50.7189 34.0607C49.69 33.5124 48.6287 33.3342 47.5944 33.5361ZM48.1738 35.7488C47.6859 35.9267 47.3003 36.2801 47.443 36.4184C47.4977 36.4714 48.1948 36.8909 48.9918 37.3505C50.3998 38.1622 50.4437 38.1794 50.5291 37.9547C50.6907 37.5294 50.5544 36.6588 50.2803 36.3651C49.7256 35.7706 48.8312 35.5091 48.1738 35.7488Z" fill="white"/>
<path d="M62.5996 7.43994V11.0903M62.5996 6.91845V6.13623M67.293 9.00439C67.293 11.5965 62.5996 13.6977 62.5996 13.6977C62.5996 13.6977 57.9062 11.5965 57.9062 9.00439C57.9062 6.41232 60.0075 4.31104 62.5996 4.31104C65.1917 4.31104 67.293 6.41232 67.293 9.00439Z" stroke="white" stroke-width="1.17334"/>
</svg>
