<svg width="71" height="67" viewBox="0 0 71 67" fill="none" xmlns="http://www.w3.org/2000/svg">
<rect x="0.794922" y="0.420898" width="69.6049" height="60.6236" rx="5" fill="#E63C32" fill-opacity="0.5"/>
<path fill-rule="evenodd" clip-rule="evenodd" d="M47.4537 19.3158C45.9414 19.4212 42.8003 19.6333 40.4736 19.7868C38.1469 19.9405 35.577 20.1121 34.7626 20.1683C33.9483 20.2245 31.4021 20.3915 29.1045 20.5393C23.7028 20.887 23.4458 20.9172 22.6309 21.2985C21.727 21.7216 21.2998 22.2587 20.2688 24.2694C19.8007 25.1821 18.9143 26.9045 18.299 28.097C17.6838 29.2894 16.6743 31.2734 16.0558 32.5059C15.013 34.5838 14.9264 34.8038 14.865 35.5293C14.8098 36.183 14.8371 36.4145 15.0309 36.937C15.2819 37.6133 15.3871 37.7816 16.7086 39.6207C17.1909 40.2918 17.7597 41.1027 17.9726 41.4226C18.1855 41.7425 18.5569 42.266 18.7978 42.586C19.2095 43.1326 19.9101 44.1367 20.9012 45.6001C21.1375 45.9491 21.3579 46.2584 21.3909 46.2875C21.424 46.3166 21.5974 46.5546 21.7765 46.8163C21.9555 47.0781 22.2009 47.405 22.3217 47.5428C22.4423 47.6806 22.5696 47.8828 22.6044 47.9923C22.639 48.1016 22.7118 48.1912 22.7661 48.1912C22.8203 48.1912 22.8647 48.2412 22.8647 48.3023C22.8647 48.4921 23.6187 49.1154 24.1802 49.3899C24.4746 49.5338 24.9297 49.6836 25.1914 49.7226C25.624 49.7871 28.6043 49.6407 32.7532 49.3514C33.6257 49.2905 36.9333 49.0763 40.1035 48.8755C50.9526 48.1879 52.4252 48.091 53.0261 48.0258C54.2256 47.8954 55.4032 47.0761 55.9602 45.9842C56.397 45.128 56.4167 44.7331 56.188 41.4102C56.0704 39.7011 55.8999 37.1843 55.8091 35.8174C55.7185 34.4504 55.5501 32.0233 55.4351 30.4237C55.3199 28.824 55.1755 26.7776 55.1141 25.876C54.8652 22.2237 54.8387 22.0138 54.542 21.3529C54.1858 20.5591 53.4602 19.8393 52.6359 19.462C51.8124 19.0851 51.0647 19.064 47.4537 19.3158ZM38.6228 23.0761C37.2466 23.2637 36.211 23.5784 35.0462 24.1629C32.0565 25.6632 29.9424 28.2597 29.0248 31.5582C28.761 32.5063 28.7376 32.7446 28.7418 34.4425C28.7459 36.1129 28.7741 36.3964 29.0318 37.3509C29.9248 40.6604 32.2775 43.4936 35.2549 44.8451C36.9997 45.637 38.1629 45.8859 40.1564 45.8935C42.114 45.901 43.672 45.5472 45.3235 44.7202C48.5258 43.1168 50.7956 40.0933 51.4713 36.5312C51.7406 35.1119 51.6143 31.7985 51.291 31.7985C51.2373 31.7985 50.7285 32.1912 50.1603 32.671L49.1274 33.5435L49.0638 34.7598C48.9647 36.6577 48.485 38.0798 47.4394 39.5756C46.2721 41.2455 44.8589 42.266 42.7475 42.964C41.928 43.235 41.7083 43.2618 40.2621 43.2671C38.8916 43.2723 38.5607 43.239 37.8297 43.0227C35.3104 42.2775 33.337 40.6142 32.2296 38.3027C31.5074 36.7954 31.3804 36.2166 31.3822 34.4425C31.3844 32.2817 31.7336 31.1191 32.8911 29.4189C34.2856 27.3707 36.3003 26.0888 38.8123 25.6514C40.3676 25.3805 42.6866 25.7302 44.1062 26.4495L44.6591 26.7297L45.6032 25.9287C46.1223 25.4882 46.5738 25.0847 46.6063 25.0322C46.6388 24.9796 46.3405 24.7435 45.9434 24.5076C44.5655 23.6889 43.0254 23.1997 41.2668 23.0218C40.0522 22.899 39.8996 22.9021 38.6228 23.0761ZM47.7012 27.7437C47.0998 28.2473 46.2507 28.9752 45.8145 29.3609C45.3782 29.7467 43.9307 30.9848 42.5979 32.1122L40.1744 34.162L39.8864 33.9966C39.7278 33.9057 38.7958 33.4144 37.815 32.9049C36.8342 32.3953 35.9711 31.9311 35.897 31.8734C35.8229 31.8157 35.7366 31.7941 35.7052 31.8254C35.6325 31.8981 35.8331 34.8211 35.9206 34.9625C36.0141 35.1139 40.2982 37.3216 40.4173 37.2798C40.5527 37.2324 41.5878 36.3707 44.6512 33.7551C46.8538 31.8745 48.9025 30.1376 50.0305 29.1946L50.2988 28.9704L49.9338 28.3678C49.7332 28.0365 49.3947 27.5544 49.1818 27.2966L48.7949 26.828L47.7012 27.7437ZM22.0704 33.1021C21.0524 33.499 20.4184 34.3014 20.3475 35.2825C20.2889 36.0923 20.4492 36.5417 21.0251 37.1823C21.3939 37.5925 21.6231 37.7447 22.0655 37.8733C22.7739 38.0792 23.0225 38.0799 23.6186 37.8767C25.4219 37.2623 25.9542 34.9711 24.5931 33.682C23.9305 33.0545 22.837 32.8032 22.0704 33.1021Z" fill="white"/>
<path d="M59.3164 7.43994V11.0903M59.3164 6.91845V6.13623M64.0098 9.00439C64.0098 11.5965 59.3164 13.6977 59.3164 13.6977C59.3164 13.6977 54.623 11.5965 54.623 9.00439C54.623 6.41232 56.7243 4.31104 59.3164 4.31104C61.9085 4.31104 64.0098 6.41232 64.0098 9.00439Z" stroke="white" stroke-width="1.17334"/>
</svg>
