<svg width="71" height="62" viewBox="0 0 71 62" fill="none" xmlns="http://www.w3.org/2000/svg">
<rect x="0.425781" y="0.420898" width="69.6049" height="60.6236" rx="5" fill="#E63C32" fill-opacity="0.5"/>
<path d="M60.8203 7.43994V11.0903M60.8203 6.91845V6.13623M65.5137 9.00439C65.5137 11.5965 60.8203 13.6977 60.8203 13.6977C60.8203 13.6977 56.127 11.5965 56.127 9.00439C56.127 6.41232 58.2282 4.31104 60.8203 4.31104C63.4124 4.31104 65.5137 6.41232 65.5137 9.00439Z" stroke="white" stroke-width="1.17334"/>
<path fill-rule="evenodd" clip-rule="evenodd" d="M26.2663 9.10612C25.8623 9.3945 25.6834 9.69729 14.9849 28.2318C13.152 31.4073 13.116 31.2978 16.6644 33.3168C17.7973 33.9616 22.3732 36.5975 26.8335 39.175C31.2937 41.7522 35.2624 43.8608 35.653 43.8608C36.1807 43.8608 36.752 43.1759 37.8718 41.2002C38.7009 39.737 41.491 34.8703 44.0716 30.3857C46.6523 25.901 48.7636 22.0886 48.7636 21.9135C48.7636 21.5792 47.0457 20.4922 41.3825 17.2432C39.4943 16.16 35.4416 13.8269 32.3765 12.0586C29.3111 10.2902 26.7621 8.84589 26.712 8.84864C26.6615 8.85173 26.461 8.96742 26.2663 9.10612ZM26.7837 12.1773C26.5777 12.5152 24.1169 16.731 21.3148 21.5459C17.4976 28.1051 16.319 30.3977 16.6139 30.6885C16.8305 30.902 21.0879 33.4198 26.0751 36.2837C32.8527 40.1754 35.214 41.3777 35.4254 41.0447C36.7554 38.9525 46.0652 22.5119 45.9694 22.4247C45.6196 22.1058 39.657 18.7994 39.4318 18.7994C39.287 18.7994 38.9145 19.3013 38.6041 19.9151C38.2938 20.529 37.4987 21.931 36.8378 23.0313L35.6362 25.0318L34.7464 23.2943L33.8562 21.5568L32.0051 21.7745L30.1543 21.9922L30.7039 20.9286C31.0064 20.3439 31.7943 18.969 32.4551 17.8735C33.1157 16.7777 33.6567 15.7168 33.6571 15.5157C33.6577 15.3148 33.1558 14.8981 32.5423 14.5898C31.9289 14.2815 30.466 13.4744 29.2923 12.7963C27.3083 11.65 27.1315 11.6061 26.7837 12.1773ZM57.2248 17.4378C54.9593 18.2985 54.6218 18.661 52.1733 22.8645C51.0009 24.8773 49.2315 27.9142 48.2418 29.6136C47.2517 31.3129 45.2842 34.7117 43.8691 37.1663C38.8698 45.8386 39.4644 45.059 37.9302 44.9491C36.993 44.8818 36.066 45.1235 34.9187 45.7342L33.2609 46.6165L27.366 43.2178C24.1234 41.3485 18.8444 38.314 15.6345 36.4746C12.4245 34.6351 9.60016 32.9467 9.35813 32.7219C9.00349 32.393 9.0955 31.9965 9.83258 30.6778C10.6596 29.1982 10.696 28.9908 10.2133 28.5085C9.91978 28.2149 9.4491 28.0632 9.16725 28.1713C8.46381 28.4415 6.13722 32.6776 6.37204 33.2612C6.54061 33.6807 10.5134 36.031 27.5575 45.795L32.2715 48.4955L32.278 49.9655C32.2869 51.9103 32.9746 53.4696 34.3244 54.6053C35.2401 55.3757 35.7581 55.5329 37.3751 55.5319C39.8184 55.5305 41.2617 54.7059 42.2651 52.7391C43.1471 51.0105 42.9881 48.709 41.8834 47.2067C41.3022 46.416 41.2551 46.1349 41.5967 45.4901C43.464 41.9651 55.8429 20.8798 56.36 20.3443C56.9632 19.7188 57.3865 19.668 61.1045 19.773C65.024 19.8839 65.2025 19.8585 65.5929 19.129C65.8909 18.5725 65.9005 18.1512 65.6282 17.5546C65.2746 16.7783 65.1057 16.7413 62.074 16.7722C59.8795 16.7948 58.3738 17.0015 57.2248 17.4378ZM36.099 47.4158C35.0842 47.9953 34.3729 49.2315 34.3567 50.443C34.3416 51.5814 35.7715 53.3378 36.8869 53.5513C38.9563 53.9468 41.1456 51.7445 40.7 49.7152C40.2609 47.7165 37.7603 46.4669 36.099 47.4158Z" fill="white"/>
<path d="M28.6152 26.8753C30.702 26.8753 31.6779 28.6506 31.6779 30.5401C31.6779 32.4919 30.7123 34.236 28.6152 34.236C26.5181 34.236 25.5318 32.4503 25.5318 30.5504C25.5318 28.3287 26.7568 26.8753 28.6152 26.8753ZM28.6152 28.5052C27.5355 28.5052 27.494 29.8341 27.494 30.6335C27.494 31.9624 27.8573 32.6061 28.6152 32.6061C29.3523 32.6061 29.7261 31.9105 29.7261 30.5401C29.7261 29.1489 29.3731 28.5052 28.6152 28.5052ZM32.8125 34.1426V28.351H34.6619C35.4081 28.351 35.9516 28.5024 36.2923 28.8052C36.6384 29.1081 36.8114 29.5245 36.8114 30.0544C36.8114 30.3681 36.7411 30.6628 36.6005 30.9386C36.4599 31.2143 36.2247 31.4361 35.8948 31.6037C35.5703 31.7713 35.1269 31.8552 34.5645 31.8552H34.0373V34.1426H32.8125ZM32.1635 33.2747V32.4878H35.2864V33.2747H32.1635ZM32.1635 31.8552V30.8493H34.5402V31.8552H32.1635ZM34.4429 30.8493C34.6754 30.8493 34.8755 30.825 35.0431 30.7763C35.2107 30.7223 35.3405 30.6384 35.4325 30.5249C35.5244 30.4113 35.5703 30.268 35.5703 30.095C35.5703 29.8462 35.4919 29.6624 35.3351 29.5434C35.1783 29.419 34.9322 29.3568 34.597 29.3568H34.0373V30.8493H34.4429Z" fill="white"/>
</svg>
